<svg xmlns="http://www.w3.org/2000/svg" viewBox="0 0 360 800" width="360" height="800">

  <!-- Background -->
  <rect width="360" height="800" fill="#f5f2ed"/>

  <g transform="translate(0, 22)">

    <!-- ========== HEADER ========== -->
    <text x="20" y="34" fill="#1a1816" font-family="'Outfit', sans-serif" font-size="22" font-weight="600">&#x2039;</text>
    <text x="180" y="34" fill="#1a1816" font-family="'Outfit', sans-serif" font-size="18" font-weight="600" text-anchor="middle">Checkpoints</text>
    <!-- Map icon -->
    <g transform="translate(325, 20)">
      <rect x="0" y="0" width="16" height="13" rx="2" fill="none" stroke="#6b6560" stroke-width="1.4"/>
      <polygon points="12,0 16,4 16,0" fill="#6b6560" opacity="0.5"/>
      <line x1="5.3" y1="0" x2="5.3" y2="13" stroke="#6b6560" stroke-width="0.8" opacity="0.4"/>
      <line x1="10.6" y1="0" x2="10.6" y2="13" stroke="#6b6560" stroke-width="0.8" opacity="0.4"/>
    </g>

    <!-- ========== PROGRESS SUMMARY CARD ========== -->
    <rect x="16" y="50" width="328" height="88" rx="16" fill="#ffffff" stroke="rgba(0,0,0,0.08)" stroke-width="1"/>

    <!-- Circular progress ring -->
    <circle cx="74" cy="94" r="28" fill="none" stroke="#f0ece6" stroke-width="5"/>
    <circle cx="74" cy="94" r="28" fill="none" stroke="#ff8c42" stroke-width="5"
            stroke-dasharray="112.59 175.93" stroke-dashoffset="43.98"
            stroke-linecap="round" transform="rotate(-90, 74, 94)"/>
    <text x="74" y="91" fill="#1a1816" font-family="'Outfit', sans-serif" font-size="16" font-weight="700" text-anchor="middle">64%</text>
    <text x="74" y="103" fill="#a8a29e" font-family="'JetBrains Mono', monospace" font-size="6.5" text-anchor="middle">COMPLETE</text>

    <!-- Stats row -->
    <text x="140" y="86" fill="#1a1816" font-family="'Outfit', sans-serif" font-size="20" font-weight="700">9</text>
    <text x="140" y="100" fill="#a8a29e" font-family="'JetBrains Mono', monospace" font-size="7.5" font-weight="500">VISITED</text>

    <text x="210" y="86" fill="#1a1816" font-family="'Outfit', sans-serif" font-size="20" font-weight="700">5</text>
    <text x="210" y="100" fill="#a8a29e" font-family="'JetBrains Mono', monospace" font-size="7.5" font-weight="500">REMAINING</text>

    <text x="298" y="86" fill="#1a1816" font-family="'Outfit', sans-serif" font-size="20" font-weight="700">14</text>
    <text x="298" y="100" fill="#a8a29e" font-family="'JetBrains Mono', monospace" font-size="7.5" font-weight="500">TOTAL</text>

    <!-- ========== CHECKPOINTS SECTION HEADER ========== -->
    <text x="20" y="164" fill="#6b6560" font-family="'JetBrains Mono', monospace" font-size="10" font-weight="500" letter-spacing="1.5">CHECKPOINTS</text>
    <text x="340" y="164" fill="#ff8c42" font-family="'JetBrains Mono', monospace" font-size="10" font-weight="500" text-anchor="end">9 / 14</text>
    <line x1="20" y1="174" x2="340" y2="174" stroke="#a8a29e" stroke-width="1" stroke-dasharray="8 6" opacity="0.4"/>

    <!-- Row height: 30px for normal, 40px for item #3 with subtitle -->
    <!-- VISITED row starts at y=190 -->

    <!-- 1. Subic, Zambales -->
    <circle cx="34" cy="192" r="8" fill="#ff8c42" opacity="0.15"/>
    <circle cx="34" cy="192" r="8" fill="none" stroke="#ff8c42" stroke-width="1.3"/>
    <polyline points="30,192 33,195 38,189" fill="none" stroke="#ff8c42" stroke-width="1.5" stroke-linecap="round" stroke-linejoin="round"/>
    <text x="50" y="196" fill="#1a1816" font-family="'Outfit', sans-serif" font-size="12" font-weight="600">Subic, Zambales</text>
    <line x1="50" y1="206" x2="340" y2="206" stroke="rgba(0,0,0,0.08)" stroke-width="1"/>

    <!-- 2. Alaminos, Pangasinan -->
    <circle cx="34" cy="220" r="8" fill="#ff8c42" opacity="0.15"/>
    <circle cx="34" cy="220" r="8" fill="none" stroke="#ff8c42" stroke-width="1.3"/>
    <polyline points="30,220 33,223 38,217" fill="none" stroke="#ff8c42" stroke-width="1.5" stroke-linecap="round" stroke-linejoin="round"/>
    <text x="50" y="224" fill="#1a1816" font-family="'Outfit', sans-serif" font-size="12" font-weight="600">Alaminos, Pangasinan</text>
    <line x1="50" y1="234" x2="340" y2="234" stroke="rgba(0,0,0,0.08)" stroke-width="1"/>

    <!-- 3. 2nd Highest Point, Atok, Benguet (with subtitle — 38px row) -->
    <circle cx="34" cy="250" r="8" fill="#ff8c42" opacity="0.15"/>
    <circle cx="34" cy="250" r="8" fill="none" stroke="#ff8c42" stroke-width="1.3"/>
    <polyline points="30,250 33,253 38,247" fill="none" stroke="#ff8c42" stroke-width="1.5" stroke-linecap="round" stroke-linejoin="round"/>
    <text x="50" y="249" fill="#1a1816" font-family="'Outfit', sans-serif" font-size="12" font-weight="600">2nd Highest Point, Atok, Benguet</text>
    <text x="50" y="262" fill="#6b6560" font-family="'Outfit', sans-serif" font-size="9">Or Highest Point Tinoc, Ifugao</text>
    <line x1="50" y1="272" x2="340" y2="272" stroke="rgba(0,0,0,0.08)" stroke-width="1"/>

    <!-- 4. Laoag, Ilocos Norte -->
    <circle cx="34" cy="286" r="8" fill="#ff8c42" opacity="0.15"/>
    <circle cx="34" cy="286" r="8" fill="none" stroke="#ff8c42" stroke-width="1.3"/>
    <polyline points="30,286 33,289 38,283" fill="none" stroke="#ff8c42" stroke-width="1.5" stroke-linecap="round" stroke-linejoin="round"/>
    <text x="50" y="290" fill="#1a1816" font-family="'Outfit', sans-serif" font-size="12" font-weight="600">Laoag, Ilocos Norte</text>
    <line x1="50" y1="300" x2="340" y2="300" stroke="rgba(0,0,0,0.08)" stroke-width="1"/>

    <!-- 5. Aparri, Cagayan Province -->
    <circle cx="34" cy="314" r="8" fill="#ff8c42" opacity="0.15"/>
    <circle cx="34" cy="314" r="8" fill="none" stroke="#ff8c42" stroke-width="1.3"/>
    <polyline points="30,314 33,317 38,311" fill="none" stroke="#ff8c42" stroke-width="1.5" stroke-linecap="round" stroke-linejoin="round"/>
    <text x="50" y="318" fill="#1a1816" font-family="'Outfit', sans-serif" font-size="12" font-weight="600">Aparri, Cagayan Province</text>
    <line x1="50" y1="328" x2="340" y2="328" stroke="rgba(0,0,0,0.08)" stroke-width="1"/>

    <!-- 6. Baler, Aurora Province -->
    <circle cx="34" cy="342" r="8" fill="#ff8c42" opacity="0.15"/>
    <circle cx="34" cy="342" r="8" fill="none" stroke="#ff8c42" stroke-width="1.3"/>
    <polyline points="30,342 33,345 38,339" fill="none" stroke="#ff8c42" stroke-width="1.5" stroke-linecap="round" stroke-linejoin="round"/>
    <text x="50" y="346" fill="#1a1816" font-family="'Outfit', sans-serif" font-size="12" font-weight="600">Baler, Aurora Province</text>
    <line x1="50" y1="356" x2="340" y2="356" stroke="rgba(0,0,0,0.08)" stroke-width="1"/>

    <!-- 7. Tacloban City -->
    <circle cx="34" cy="370" r="8" fill="#ff8c42" opacity="0.15"/>
    <circle cx="34" cy="370" r="8" fill="none" stroke="#ff8c42" stroke-width="1.3"/>
    <polyline points="30,370 33,373 38,367" fill="none" stroke="#ff8c42" stroke-width="1.5" stroke-linecap="round" stroke-linejoin="round"/>
    <text x="50" y="374" fill="#1a1816" font-family="'Outfit', sans-serif" font-size="12" font-weight="600">Tacloban City</text>
    <line x1="50" y1="384" x2="340" y2="384" stroke="rgba(0,0,0,0.08)" stroke-width="1"/>

    <!-- 8. Gen. Santos City, South Cotabato -->
    <circle cx="34" cy="398" r="8" fill="#ff8c42" opacity="0.15"/>
    <circle cx="34" cy="398" r="8" fill="none" stroke="#ff8c42" stroke-width="1.3"/>
    <polyline points="30,398 33,401 38,395" fill="none" stroke="#ff8c42" stroke-width="1.5" stroke-linecap="round" stroke-linejoin="round"/>
    <text x="50" y="402" fill="#1a1816" font-family="'Outfit', sans-serif" font-size="12" font-weight="600">Gen. Santos City, South Cotabato</text>
    <line x1="50" y1="412" x2="340" y2="412" stroke="rgba(0,0,0,0.08)" stroke-width="1"/>

    <!-- 9. Zamboanga City -->
    <circle cx="34" cy="426" r="8" fill="#ff8c42" opacity="0.15"/>
    <circle cx="34" cy="426" r="8" fill="none" stroke="#ff8c42" stroke-width="1.3"/>
    <polyline points="30,426 33,429 38,423" fill="none" stroke="#ff8c42" stroke-width="1.5" stroke-linecap="round" stroke-linejoin="round"/>
    <text x="50" y="430" fill="#1a1816" font-family="'Outfit', sans-serif" font-size="12" font-weight="600">Zamboanga City</text>
    <line x1="50" y1="440" x2="340" y2="440" stroke="rgba(0,0,0,0.08)" stroke-width="1"/>

    <!-- ===== UNVISITED CHECKPOINTS ===== -->

    <!-- 10. Sorsogon City -->
    <circle cx="34" cy="454" r="8" fill="none" stroke="#ff8c42" stroke-width="1.3" opacity="0.4"/>
    <text x="50" y="458" fill="#a8a29e" font-family="'Outfit', sans-serif" font-size="12" font-weight="500">Sorsogon City</text>
    <line x1="50" y1="468" x2="340" y2="468" stroke="rgba(0,0,0,0.08)" stroke-width="1"/>

    <!-- 11. Surigao City -->
    <circle cx="34" cy="482" r="8" fill="none" stroke="#ff8c42" stroke-width="1.3" opacity="0.4"/>
    <text x="50" y="486" fill="#a8a29e" font-family="'Outfit', sans-serif" font-size="12" font-weight="500">Surigao City</text>
    <line x1="50" y1="496" x2="340" y2="496" stroke="rgba(0,0,0,0.08)" stroke-width="1"/>

    <!-- 12. Cagayan de Oro -->
    <circle cx="34" cy="510" r="8" fill="none" stroke="#ff8c42" stroke-width="1.3" opacity="0.4"/>
    <text x="50" y="514" fill="#a8a29e" font-family="'Outfit', sans-serif" font-size="12" font-weight="500">Cagayan de Oro</text>
    <line x1="50" y1="524" x2="340" y2="524" stroke="rgba(0,0,0,0.08)" stroke-width="1"/>

    <!-- 13. Davao City -->
    <circle cx="34" cy="538" r="8" fill="none" stroke="#ff8c42" stroke-width="1.3" opacity="0.4"/>
    <text x="50" y="542" fill="#a8a29e" font-family="'Outfit', sans-serif" font-size="12" font-weight="500">Davao City</text>
    <line x1="50" y1="552" x2="340" y2="552" stroke="rgba(0,0,0,0.08)" stroke-width="1"/>

    <!-- 14. Puerto Princesa, Palawan -->
    <circle cx="34" cy="566" r="8" fill="none" stroke="#ff8c42" stroke-width="1.3" opacity="0.4"/>
    <text x="50" y="570" fill="#a8a29e" font-family="'Outfit', sans-serif" font-size="12" font-weight="500">Puerto Princesa, Palawan</text>

    <!-- ========== FERRY POINTS SECTION ========== -->
    <text x="20" y="604" fill="#6b6560" font-family="'JetBrains Mono', monospace" font-size="10" font-weight="500" letter-spacing="1.5">FERRY POINTS</text>
    <text x="340" y="604" fill="#4facfe" font-family="'JetBrains Mono', monospace" font-size="10" font-weight="500" text-anchor="end">3 / 6</text>
    <line x1="20" y1="614" x2="340" y2="614" stroke="#a8a29e" stroke-width="1" stroke-dasharray="8 6" opacity="0.4"/>

    <!-- Ferry visited 1: Sorsogon — Northern Samar -->
    <circle cx="34" cy="632" r="8" fill="#4facfe" opacity="0.15"/>
    <circle cx="34" cy="632" r="8" fill="none" stroke="#4facfe" stroke-width="1.3"/>
    <polyline points="30,632 33,635 38,629" fill="none" stroke="#4facfe" stroke-width="1.5" stroke-linecap="round" stroke-linejoin="round"/>
    <text x="50" y="636" fill="#1a1816" font-family="'Outfit', sans-serif" font-size="11.5" font-weight="600">Sorsogon</text>
    <text x="50" y="636" fill="#1a1816" font-family="'Outfit', sans-serif" font-size="11.5" font-weight="600" opacity="0">.</text>
    <text x="340" y="636" fill="#6b6560" font-family="'Outfit', sans-serif" font-size="9.5" text-anchor="end">Northern Samar</text>
    <line x1="50" y1="646" x2="340" y2="646" stroke="rgba(0,0,0,0.08)" stroke-width="1"/>

    <!-- Ferry visited 2: Southern Leyte — Surigao del Norte -->
    <circle cx="34" cy="660" r="8" fill="#4facfe" opacity="0.15"/>
    <circle cx="34" cy="660" r="8" fill="none" stroke="#4facfe" stroke-width="1.3"/>
    <polyline points="30,660 33,663 38,657" fill="none" stroke="#4facfe" stroke-width="1.5" stroke-linecap="round" stroke-linejoin="round"/>
    <text x="50" y="664" fill="#1a1816" font-family="'Outfit', sans-serif" font-size="11.5" font-weight="600">Southern Leyte</text>
    <text x="340" y="664" fill="#6b6560" font-family="'Outfit', sans-serif" font-size="9.5" text-anchor="end">Surigao del Norte</text>
    <line x1="50" y1="674" x2="340" y2="674" stroke="rgba(0,0,0,0.08)" stroke-width="1"/>

    <!-- Ferry visited 3: Zamboanga del Norte — Negros Oriental -->
    <circle cx="34" cy="688" r="8" fill="#4facfe" opacity="0.15"/>
    <circle cx="34" cy="688" r="8" fill="none" stroke="#4facfe" stroke-width="1.3"/>
    <polyline points="30,688 33,691 38,685" fill="none" stroke="#4facfe" stroke-width="1.5" stroke-linecap="round" stroke-linejoin="round"/>
    <text x="50" y="692" fill="#1a1816" font-family="'Outfit', sans-serif" font-size="11.5" font-weight="600">Zamboanga del Norte</text>
    <text x="340" y="692" fill="#6b6560" font-family="'Outfit', sans-serif" font-size="9.5" text-anchor="end">Negros Oriental</text>
    <line x1="50" y1="702" x2="340" y2="702" stroke="rgba(0,0,0,0.08)" stroke-width="1"/>

    <!-- Ferry unvisited 4: Negros Occidental — Iloilo -->
    <circle cx="34" cy="716" r="8" fill="none" stroke="#4facfe" stroke-width="1.3" opacity="0.4"/>
    <text x="50" y="720" fill="#a8a29e" font-family="'Outfit', sans-serif" font-size="11.5" font-weight="500">Negros Occidental</text>
    <text x="340" y="720" fill="#a8a29e" font-family="'Outfit', sans-serif" font-size="9.5" text-anchor="end" opacity="0.6">Iloilo</text>
    <line x1="50" y1="730" x2="340" y2="730" stroke="rgba(0,0,0,0.08)" stroke-width="1"/>

    <!-- Ferry unvisited 5: Iloilo — Batangas -->
    <circle cx="34" cy="744" r="8" fill="none" stroke="#4facfe" stroke-width="1.3" opacity="0.4"/>
    <text x="50" y="748" fill="#a8a29e" font-family="'Outfit', sans-serif" font-size="11.5" font-weight="500">Iloilo</text>
    <text x="340" y="748" fill="#a8a29e" font-family="'Outfit', sans-serif" font-size="9.5" text-anchor="end" opacity="0.6">Batangas</text>
    <line x1="50" y1="758" x2="340" y2="758" stroke="rgba(0,0,0,0.08)" stroke-width="1"/>

    <!-- Ferry unvisited 6: Batangas — Mindoro -->
    <circle cx="34" cy="770" r="8" fill="none" stroke="#4facfe" stroke-width="1.3" opacity="0.4"/>
    <text x="50" y="774" fill="#a8a29e" font-family="'Outfit', sans-serif" font-size="11.5" font-weight="500">Batangas</text>
    <text x="340" y="774" fill="#a8a29e" font-family="'Outfit', sans-serif" font-size="9.5" text-anchor="end" opacity="0.6">Mindoro</text>

  </g>
</svg>